<svg width="57" height="41" viewBox="0 0 57 41" fill="none" xmlns="http://www.w3.org/2000/svg">
<path d="M9.38625 40.2686C4.20959 40.2686 0 36.059 0 30.8823C0 25.7057 4.20959 21.4961 9.38625 21.4961C14.5629 21.4961 18.7725 25.7057 18.7725 30.8823C18.7725 36.0874 14.5629 40.2686 9.38625 40.2686Z" fill="white"/>
<path d="M9.38625 40.2686C4.20959 40.2686 0 36.059 0 30.8823C0 25.7057 4.20959 21.4961 9.38625 21.4961C14.5629 21.4961 18.7725 25.7057 18.7725 30.8823C18.7725 36.0874 14.5629 40.2686 9.38625 40.2686Z" fill="white"/>
<path d="M31.572 1.04508L21.3893 17.6843C21.1049 18.1679 21.4178 18.7652 21.9582 18.7652H32.1409H42.3235C42.8639 18.7652 43.1768 18.1394 42.8924 17.6843L32.7097 1.04508C32.4253 0.618436 31.828 0.618436 31.572 1.04508Z" fill="white"/>
<path d="M18.5733 3.86116L14.9041 0.191991C14.6481 -0.0639971 14.193 -0.0639971 13.9371 0.191991L9.89813 4.23092C9.64214 4.48691 9.18705 4.48691 8.93106 4.23092L4.89213 0.191991C4.63614 -0.0639971 4.18105 -0.0639971 3.92506 0.191991L0.255895 3.86116C-9.33334e-05 4.11715 -9.33334e-05 4.57224 0.255895 4.82823L4.29482 8.86716C4.55081 9.12315 4.55081 9.57824 4.29482 9.83422L0.255895 13.8732C-9.33334e-05 14.1291 -9.33334e-05 14.5842 0.255895 14.8402L3.92506 18.5094C4.18105 18.7654 4.63614 18.7654 4.89213 18.5094L8.93106 14.4705C9.18705 14.2145 9.64214 14.2145 9.89813 14.4705L13.9371 18.5094C14.193 18.7654 14.6481 18.7654 14.9041 18.5094L18.5733 14.8402C18.8293 14.5842 18.8293 14.1291 18.5733 13.8732L14.5344 9.83422C14.2784 9.57824 14.2784 9.12315 14.5344 8.86716L18.5733 4.82823C18.8577 4.57224 18.8577 4.14559 18.5733 3.86116Z" fill="white"/>
<path d="M23.1811 27.9806V29.1752H25.2574V30.0001H23.1811V31.6213H22.1571V27.1558H25.5134V27.9806H23.1811Z" fill="white"/>
<path d="M26.9072 31.1663C26.5659 30.8249 26.3668 30.313 26.3668 29.6588V27.1558H27.3908V29.6019C27.3908 30.3983 27.7321 30.7965 28.3863 30.7965C28.6992 30.7965 28.9552 30.7112 29.1258 30.5121C29.2965 30.313 29.3818 30.0285 29.3818 29.6019V27.1558H30.4058V29.6588C30.4058 30.313 30.2351 30.8249 29.8653 31.1663C29.524 31.5076 29.012 31.7067 28.3863 31.7067C27.7605 31.7067 27.2486 31.5076 26.9072 31.1663Z" fill="white"/>
<path d="M32.4535 28.0091H31.0314V27.1558H34.8996V28.0091H33.4775V31.6213H32.4535V28.0091Z" fill="white"/>
<path d="M36.0658 31.1663C35.7245 30.8249 35.5254 30.313 35.5254 29.6588V27.1558H36.5493V29.6019C36.5493 30.3983 36.8907 30.7965 37.5449 30.7965C37.8577 30.7965 38.1137 30.7112 38.2844 30.5121C38.455 30.313 38.5404 30.0285 38.5404 29.6019V27.1558H39.5643V29.6588C39.5643 30.313 39.3937 30.8249 39.0239 31.1663C38.6826 31.5076 38.1706 31.7067 37.5449 31.7067C36.9191 31.7067 36.4356 31.5076 36.0658 31.1663Z" fill="white"/>
<path d="M43.6034 31.6217L42.7501 30.3702H42.6932H41.783V31.6217H40.759V27.1846H42.6932C43.0914 27.1846 43.4327 27.2415 43.7171 27.3837C44.0016 27.5259 44.2291 27.6966 44.3998 27.9525C44.542 28.1801 44.6273 28.493 44.6273 28.8058C44.6273 29.1472 44.542 29.4316 44.3998 29.6591C44.2291 29.8867 44.0016 30.0858 43.7171 30.1995L44.7126 31.6217H43.6034ZM43.3474 28.2085C43.1767 28.0663 42.9492 28.0094 42.6363 28.0094H41.783V29.5738H42.6363C42.9492 29.5738 43.1767 29.5169 43.3474 29.3747C43.518 29.2325 43.5749 29.0618 43.5749 28.8058C43.6033 28.5214 43.518 28.3507 43.3474 28.2085Z" fill="white"/>
<path d="M49.0929 30.7965V31.6213H45.6512V27.1558H49.0075V27.9806H46.6752V28.9477H48.7231V29.7725H46.6752V30.7965H49.0929Z" fill="white"/>
<path d="M25.0868 38.9032H23.0104L22.6122 39.8702H21.5598L23.5508 35.4331H24.5748L26.5658 39.8702H25.485L25.0868 38.9032ZM24.7739 38.1352L24.0628 36.4286L23.3517 38.1352H24.7739Z" fill="white"/>
<path d="M28.0449 39.6427C27.6752 39.4436 27.3908 39.1592 27.1917 38.8178C26.9925 38.4765 26.8788 38.0783 26.8788 37.6232C26.8788 37.1966 26.9925 36.7984 27.1917 36.4286C27.3908 36.0873 27.7036 35.8029 28.0449 35.6038C28.4147 35.4047 28.8129 35.3193 29.268 35.3193C29.6662 35.3193 30.0075 35.3762 30.3204 35.5184C30.6333 35.6607 30.8893 35.8598 31.1168 36.1157L30.4626 36.713C30.1497 36.3717 29.78 36.2011 29.3533 36.2011C29.0689 36.2011 28.8414 36.258 28.6138 36.3717C28.3863 36.4855 28.2156 36.6562 28.1018 36.8837C27.9881 37.1113 27.9312 37.3388 27.9312 37.6232C27.9312 37.9077 27.9881 38.1352 28.1018 38.3628C28.2156 38.5903 28.3863 38.761 28.6138 38.8747C28.8414 38.9885 29.0689 39.0454 29.3533 39.0454C29.8084 39.0454 30.1782 38.8747 30.4626 38.505L31.1168 39.1023C30.9177 39.3583 30.6333 39.5574 30.3204 39.6996C30.0075 39.8418 29.6662 39.8987 29.268 39.8987C28.8414 39.9271 28.4147 39.8418 28.0449 39.6427Z" fill="white"/>
<path d="M34.8428 38.9032H32.7664L32.3682 39.8702H31.3158L33.3068 35.4331H34.3308L36.3218 39.8702H35.241L34.8428 38.9032ZM34.5299 38.1352L33.8188 36.4286L33.1077 38.1352H34.5299Z" fill="white"/>
<path d="M36.9761 35.4043H38.9955C39.4791 35.4043 39.9057 35.4896 40.2755 35.6887C40.6452 35.8594 40.9297 36.1438 41.1288 36.4567C41.3279 36.798 41.4416 37.1678 41.4416 37.6229C41.4416 38.078 41.3279 38.4477 41.1288 38.789C40.9297 39.1304 40.6452 39.3863 40.2755 39.557C39.9057 39.7277 39.4791 39.8414 38.9955 39.8414H36.9761V35.4043ZM38.9387 39.0166C39.3937 39.0166 39.7351 38.9028 39.991 38.6468C40.247 38.3908 40.3893 38.0495 40.3893 37.6513C40.3893 37.2247 40.247 36.8833 39.991 36.6558C39.7351 36.3998 39.3653 36.286 38.9387 36.286H38V39.045H38.9387V39.0166Z" fill="white"/>
<path d="M45.8503 39.045V39.8699H42.4087V35.4043H45.765V36.2292H43.4326V37.1962H45.509V37.9926H43.4326V39.045H45.8503Z" fill="white"/>
<path d="M50.9132 39.8699V37.1962L49.6048 39.3863H49.1497L47.8413 37.2531V39.8699H46.8743V35.4043H47.7276L49.3773 38.1633L51.027 35.4043H51.8803V39.8699H50.9132Z" fill="white"/>
<path d="M55.265 38.2771V39.8699H54.241V38.2771L52.506 35.4043H53.6153L54.8099 37.3953L55.9761 35.4043H57L55.265 38.2771Z" fill="white"/>
</svg>
