<svg width="18" height="20" viewBox="0 0 18 20" fill="none" xmlns="http://www.w3.org/2000/svg">
<path d="M17.7188 9.70703C17.7188 14.0664 14.5195 17.6875 10.3359 18.3203V12.2383H12.375L12.7617 9.70703H10.3359V8.08984C10.3359 7.38672 10.6875 6.71875 11.7773 6.71875H12.8672V4.57422C12.8672 4.57422 11.8828 4.39844 10.8984 4.39844C8.92969 4.39844 7.62891 5.62891 7.62891 7.80859V9.70703H5.41406V12.2383H7.62891V18.3203C3.44531 17.6875 0.28125 14.0664 0.28125 9.70703C0.28125 4.89062 4.18359 0.988281 9 0.988281C13.8164 0.988281 17.7188 4.89062 17.7188 9.70703Z" fill="white"/>
<path d="M0 18.2148H18V19.0938H0V18.2148Z" fill="white"/>
</svg>
