<svg width="17" height="19" viewBox="0 0 17 19" fill="none" xmlns="http://www.w3.org/2000/svg">
<path d="M8.875 4.66406C11.0898 4.66406 12.918 6.49219 12.918 8.70703C12.918 10.957 11.0898 12.75 8.875 12.75C6.625 12.75 4.83203 10.957 4.83203 8.70703C4.83203 6.49219 6.625 4.66406 8.875 4.66406ZM8.875 11.3438C10.3164 11.3438 11.4766 10.1836 11.4766 8.70703C11.4766 7.26562 10.3164 6.10547 8.875 6.10547C7.39844 6.10547 6.23828 7.26562 6.23828 8.70703C6.23828 10.1836 7.43359 11.3438 8.875 11.3438ZM14.0078 4.52344C14.0078 5.05078 13.5859 5.47266 13.0586 5.47266C12.5312 5.47266 12.1094 5.05078 12.1094 4.52344C12.1094 3.99609 12.5312 3.57422 13.0586 3.57422C13.5859 3.57422 14.0078 3.99609 14.0078 4.52344ZM16.6797 5.47266C16.75 6.77344 16.75 10.6758 16.6797 11.9766C16.6094 13.2422 16.3281 14.332 15.4141 15.2812C14.5 16.1953 13.375 16.4766 12.1094 16.5469C10.8086 16.6172 6.90625 16.6172 5.60547 16.5469C4.33984 16.4766 3.25 16.1953 2.30078 15.2812C1.38672 14.332 1.10547 13.2422 1.03516 11.9766C0.964844 10.6758 0.964844 6.77344 1.03516 5.47266C1.10547 4.20703 1.38672 3.08203 2.30078 2.16797C3.25 1.25391 4.33984 0.972656 5.60547 0.902344C6.90625 0.832031 10.8086 0.832031 12.1094 0.902344C13.375 0.972656 14.5 1.25391 15.4141 2.16797C16.3281 3.08203 16.6094 4.20703 16.6797 5.47266ZM14.9922 13.3477C15.4141 12.3281 15.3086 9.86719 15.3086 8.70703C15.3086 7.58203 15.4141 5.12109 14.9922 4.06641C14.7109 3.39844 14.1836 2.83594 13.5156 2.58984C12.4609 2.16797 10 2.27344 8.875 2.27344C7.71484 2.27344 5.25391 2.16797 4.23438 2.58984C3.53125 2.87109 3.00391 3.39844 2.72266 4.06641C2.30078 5.12109 2.40625 7.58203 2.40625 8.70703C2.40625 9.86719 2.30078 12.3281 2.72266 13.3477C3.00391 14.0508 3.53125 14.5781 4.23438 14.8594C5.25391 15.2812 7.71484 15.1758 8.875 15.1758C10 15.1758 12.4609 15.2812 13.5156 14.8594C14.1836 14.5781 14.7461 14.0508 14.9922 13.3477Z" fill="white"/>
<path d="M1 17.2148H16.75V18.0938H1V17.2148Z" fill="white"/>
</svg>
