<svg width="21" height="16" viewBox="0 0 21 16" fill="none" xmlns="http://www.w3.org/2000/svg">
<path d="M19.1602 0.855469C18.8789 2.05078 16.3477 5.63672 16.3477 5.63672C16.1367 5.98828 16.0312 6.16406 16.3477 6.55078C16.4883 6.72656 19.125 9.25781 19.5117 10.4531C19.6875 11.0508 19.4062 11.332 18.8086 11.332H16.7344C15.9609 11.332 15.7148 10.7344 14.3086 9.32812C13.0781 8.13281 12.5508 7.95703 12.2344 7.95703C11.6016 7.95703 11.707 8.20312 11.707 10.5586C11.707 11.0508 11.5312 11.332 10.2305 11.332C8.05078 11.332 5.625 10.0312 3.90234 7.57031C1.33594 3.94922 0.632812 1.24219 0.632812 0.679688C0.632812 0.363281 0.773438 0.0820312 1.33594 0.0820312H3.41016C3.9375 0.0820312 4.14844 0.328125 4.35938 0.890625C5.37891 3.84375 7.06641 6.44531 7.76953 6.44531C8.05078 6.44531 8.15625 6.30469 8.15625 5.63672V2.57812C8.08594 1.17188 7.34766 1.06641 7.34766 0.574219C7.34766 0.328125 7.52344 0.0820312 7.875 0.0820312H11.1094C11.5664 0.0820312 11.707 0.328125 11.707 0.855469V4.96875C11.707 5.39062 11.918 5.56641 12.0234 5.56641C12.3047 5.56641 12.5156 5.39062 13.0078 4.93359C14.4844 3.24609 15.5391 0.679688 15.5391 0.679688C15.6797 0.363281 15.9258 0.0820312 16.4531 0.0820312H18.5273C19.1602 0.0820312 19.2656 0.433594 19.1602 0.855469Z" fill="white"/>
<path d="M0 14.2148H20.25V15.0938H0V14.2148Z" fill="white"/>
</svg>
