<svg width="21" height="18" viewBox="0 0 21 18" fill="none" xmlns="http://www.w3.org/2000/svg">
<path d="M19.3008 3.10156C19.7227 4.57812 19.7227 7.74219 19.7227 7.74219C19.7227 7.74219 19.7227 10.8711 19.3008 12.3828C19.0898 13.2266 18.4219 13.8594 17.6133 14.0703C16.1016 14.457 10.125 14.457 10.125 14.457C10.125 14.457 4.11328 14.457 2.60156 14.0703C1.79297 13.8594 1.125 13.2266 0.914062 12.3828C0.492188 10.8711 0.492188 7.74219 0.492188 7.74219C0.492188 7.74219 0.492188 4.57812 0.914062 3.10156C1.125 2.25781 1.79297 1.58984 2.60156 1.37891C4.11328 0.957031 10.125 0.957031 10.125 0.957031C10.125 0.957031 16.1016 0.957031 17.6133 1.37891C18.4219 1.58984 19.0898 2.25781 19.3008 3.10156ZM8.15625 10.5898L13.1484 7.74219L8.15625 4.89453V10.5898Z" fill="white"/>
<path d="M0 16.2148H20.25V17.0938H0V16.2148Z" fill="white"/>
</svg>
